<svg width="18" height="19" viewBox="0 0 18 19" fill="none" xmlns="http://www.w3.org/2000/svg">
<g clip-path="url(#clip0_1_139)">
<path d="M9.18326 1.31792C9.15896 1.12442 8.84126 1.12442 8.81786 1.31792C8.02316 7.71422 3.95966 9.03272 3.95966 13.4787C3.95966 16.2264 6.26726 18.453 9.00056 18.453C11.733 18.453 14.0406 16.2255 14.0406 13.4787C14.0406 9.03272 9.97796 7.71422 9.18326 1.31792ZM8.41556 8.38922C8.36246 8.58632 8.30486 8.78882 8.24546 8.99942C7.88456 10.281 7.47506 11.7345 7.47506 13.4148C7.47506 14.3256 6.93686 14.6487 6.43466 14.6487C6.29744 14.6481 6.16168 14.6205 6.03513 14.5675C5.90858 14.5144 5.79373 14.4369 5.69711 14.3395C5.6005 14.242 5.52403 14.1265 5.47207 13.9995C5.4201 13.8725 5.39366 13.7365 5.39426 13.5993C5.39426 11.613 6.35006 10.3152 7.19426 9.17132C7.45976 8.81312 7.70906 8.47382 7.91156 8.13632C8.00426 7.98152 8.25356 7.98872 8.36696 8.14172C8.42006 8.21372 8.43806 8.30552 8.41556 8.38922Z" fill="#5A92CB"/>
</g>
<defs>
<clipPath id="clip0_1_139">
<rect width="18" height="18" fill="white" transform="translate(0.000488281 0.812988)"/>
</clipPath>
</defs>
</svg>
