<svg width="15" height="18" viewBox="0 0 15 18" fill="none" xmlns="http://www.w3.org/2000/svg">
<path d="M6.08523 8.75584C6.50873 9.86416 6.46368 11.0175 5.19316 11.4771C2.58003 12.4412 1.99433 9.90922 1.95829 9.78307L6.08523 8.75584ZM1.5528 8.02597L5.44546 7.06182C5.27426 6.11569 5.53557 5.16957 5.53557 4.05223C5.53557 2.53843 4.33713 -0.426107 2.42685 0.0514625C0.246241 0.592107 -0.0691363 3.016 0.0119608 4.18739C0.12009 5.35879 1.48973 7.86378 1.5528 8.02597ZM12.4919 16.0816C12.4649 16.2167 11.8701 18.7397 9.25702 17.7846C7.99551 17.3161 7.94145 16.1627 8.36495 15.0544L12.4919 16.0816ZM14.4292 10.4949C14.5193 9.32352 14.2129 6.89062 12.0233 6.34997C10.1221 5.85438 8.92362 8.83694 8.92362 10.3598C8.92362 11.4681 9.17592 12.4142 9.02274 13.3603L12.8974 14.3245C12.9695 14.1623 14.3301 11.6573 14.4292 10.4949Z" fill="#81B47D"/>
</svg>
